<svg width="20" height="22" viewBox="0 0 20 22" fill="none" xmlns="http://www.w3.org/2000/svg">
<g clip-path="url(#clip0_1932_573)">
<path d="M17.7226 22.0002H2.32064C1.06433 22.0002 0.0429688 20.9939 0.0429688 19.7561V4.58189C0.0429688 3.34415 1.06433 2.33789 2.32064 2.33789H17.7226C18.9789 2.33789 20.0002 3.34415 20.0002 4.58189V19.7561C20.0002 20.9939 18.9789 22.0002 17.7226 22.0002ZM2.32064 3.33841C1.62549 3.33841 1.0585 3.89511 1.0585 4.58189V19.7561C1.0585 20.441 1.62355 20.9996 2.32064 20.9996H17.7226C18.4177 20.9996 18.9847 20.4429 18.9847 19.7561V4.58189C18.9847 3.89702 18.4197 3.33841 17.7226 3.33841H2.32064Z" fill="black"/>
<path d="M5.97358 5.60139C5.69203 5.60139 5.46484 5.37756 5.46484 5.10017V0.501217C5.46484 0.223826 5.69203 0 5.97358 0C6.25514 0 6.48232 0.223826 6.48232 0.501217V5.10209C6.48232 5.37948 6.25514 5.6033 5.97358 5.6033V5.60139Z" fill="black"/>
<path d="M19.2272 9.87939H0.852488C0.570934 9.87939 0.34375 9.65556 0.34375 9.37817C0.34375 9.10078 0.570934 8.87695 0.852488 8.87695H19.2272C19.5088 8.87695 19.736 9.10078 19.736 9.37817C19.736 9.65556 19.5088 9.87939 19.2272 9.87939Z" fill="black"/>
<path d="M14.1826 5.60139C13.901 5.60139 13.6738 5.37756 13.6738 5.10017V0.501217C13.6738 0.223826 13.901 0 14.1826 0C14.4641 0 14.6913 0.223826 14.6913 0.501217V5.10209C14.6913 5.37948 14.4641 5.6033 14.1826 5.6033V5.60139Z" fill="black"/>
</g>
<defs>
<clipPath id="clip0_1932_573">
<rect width="20" height="22" fill="white"/>
</clipPath>
</defs>
</svg>
