<svg width="20" height="20" viewBox="0 0 20 20" fill="none" xmlns="http://www.w3.org/2000/svg">
<g clip-path="url(#clip0_1932_580)">
<path d="M10.2434 19.9963C9.96129 19.9963 9.67735 19.8906 9.4557 19.6809L7.95359 18.2564C7.87849 18.1859 7.76125 18.1859 7.68981 18.2582L6.239 19.6698C5.79386 20.102 5.09593 20.1039 4.64896 19.6754L3.07541 18.1673C3.00214 18.0968 2.8849 18.095 2.8098 18.1673L1.52385 19.4213C1.26373 19.6754 0.879039 19.7477 0.545645 19.603C0.212251 19.4602 -0.00390625 19.13 -0.00390625 18.7628V2.28715C-0.000242576 1.02578 1.01276 0 2.25841 0H17.7429C18.9886 0 20.0016 1.02578 20.0016 2.28715V18.7739C20.0016 19.1393 19.7873 19.4695 19.4557 19.6142C19.1223 19.757 18.7413 19.6884 18.4793 19.438L17.3381 18.3435C17.2648 18.273 17.1476 18.273 17.0725 18.3435L15.7169 19.668C15.2736 20.1002 14.5757 20.1057 14.1287 19.6772L12.6999 18.312C12.6248 18.2397 12.5094 18.2415 12.4343 18.312L11.0457 19.668C10.8223 19.8868 10.5347 19.9944 10.2471 19.9944L10.2434 19.9963ZM7.82353 17.2324C8.10564 17.2324 8.38774 17.3382 8.61122 17.5478L10.1133 18.9742C10.1884 19.0447 10.3038 19.0447 10.3771 18.9724L11.7656 17.6164C12.2071 17.1823 12.9069 17.1786 13.3557 17.6071L14.7845 18.9724C14.8596 19.0447 14.9769 19.0447 15.0483 18.9724L16.4039 17.6479C16.8472 17.2139 17.5469 17.212 17.9939 17.6405L19.038 18.6422V2.28715C19.038 1.56186 18.4555 0.97199 17.7393 0.97199H2.25841C1.54216 0.97199 0.95964 1.56186 0.95964 2.28715V18.6273L2.1485 17.468C2.59181 17.0358 3.29157 17.0321 3.73854 17.4624L5.31209 18.9705C5.38536 19.0428 5.5026 19.0428 5.5777 18.9705L7.02669 17.5589C7.25017 17.3419 7.53594 17.2343 7.82537 17.2343L7.82353 17.2324Z" fill="black"/>
<path d="M12.6046 14.3359C11.4597 14.3359 10.5273 13.3918 10.5273 12.2324C10.5273 11.0731 11.4597 10.1289 12.6046 10.1289C13.7495 10.1289 14.682 11.0731 14.682 12.2324C14.682 13.3918 13.7495 14.3359 12.6046 14.3359ZM12.6046 11.1009C11.9891 11.1009 11.4872 11.6092 11.4872 12.2324C11.4872 12.8557 11.9891 13.3639 12.6046 13.3639C13.2201 13.3639 13.7221 12.8557 13.7221 12.2324C13.7221 11.6092 13.2201 11.1009 12.6046 11.1009Z" fill="black"/>
<path d="M7.39762 9.12498C6.25272 9.12498 5.32031 8.18081 5.32031 7.02147C5.32031 5.86213 6.25272 4.91797 7.39762 4.91797C8.54251 4.91797 9.47492 5.86213 9.47492 7.02147C9.47492 8.18081 8.54251 9.12498 7.39762 9.12498ZM7.39762 5.88996C6.78212 5.88996 6.28019 6.39821 6.28019 7.02147C6.28019 7.64474 6.78212 8.15299 7.39762 8.15299C8.01311 8.15299 8.51504 7.64474 8.51504 7.02147C8.51504 6.39821 8.01311 5.88996 7.39762 5.88996Z" fill="black"/>
<path d="M6.54739 13.4159C6.42465 13.4159 6.30192 13.3676 6.20849 13.273C6.02165 13.0838 6.02165 12.7759 6.20849 12.5867L12.7775 5.93487C12.9643 5.74567 13.2684 5.74567 13.4552 5.93487C13.6421 6.12408 13.6421 6.432 13.4552 6.6212L6.88627 13.273C6.79285 13.3676 6.67012 13.4159 6.54739 13.4159Z" fill="black"/>
</g>
<defs>
<clipPath id="clip0_1932_580">
<rect width="20" height="20" fill="white"/>
</clipPath>
</defs>
</svg>
