<svg width="20" height="21" viewBox="0 0 20 21" fill="none" xmlns="http://www.w3.org/2000/svg">
<g clip-path="url(#clip0_1932_593)">
<path d="M17.8777 18.8675H2.12231C0.951692 18.8675 0 17.9037 0 16.7181V12.3018C0 11.1162 0.951692 10.1523 2.12231 10.1523H17.8777C19.0483 10.1523 20 11.1162 20 12.3018V16.7181C20 17.9037 19.0483 18.8675 17.8777 18.8675ZM2.12231 11.1089C1.47458 11.1089 0.946264 11.6421 0.946264 12.3V16.7162C0.946264 17.3722 1.47277 17.9073 2.12231 17.9073H17.8777C18.5254 17.9073 19.0537 17.3741 19.0537 16.7162V12.3C19.0537 11.644 18.5272 11.1089 17.8777 11.1089H2.12231Z" fill="black"/>
<path d="M2.25919 9.58927C1.99684 9.58927 1.78516 9.37487 1.78516 9.10916V0.480105C1.78516 0.214398 1.99684 0 2.25919 0C2.52154 0 2.73323 0.214398 2.73323 0.480105V9.111C2.73323 9.3767 2.52154 9.5911 2.25919 9.5911V9.58927Z" fill="black"/>
<path d="M17.7397 9.58927C17.4773 9.58927 17.2656 9.37487 17.2656 9.10916V0.480105C17.2656 0.214398 17.4773 0 17.7397 0C18.002 0 18.2137 0.214398 18.2137 0.480105V9.111C18.2137 9.3767 18.002 9.5911 17.7397 9.5911V9.58927Z" fill="black"/>
<path d="M17.7396 2.75513H2.25919C1.99684 2.75513 1.78516 2.54073 1.78516 2.27503C1.78516 2.00932 1.99684 1.79492 2.25919 1.79492H17.7396C18.0019 1.79492 18.2136 2.00932 18.2136 2.27503C18.2136 2.54073 18.0019 2.75513 17.7396 2.75513Z" fill="black"/>
<path d="M17.0673 16.345H2.93302C2.67067 16.345 2.45898 16.1306 2.45898 15.8649C2.45898 15.5992 2.67067 15.3848 2.93302 15.3848H17.0673C17.3296 15.3848 17.5413 15.5992 17.5413 15.8649C17.5413 16.1306 17.3296 16.345 17.0673 16.345Z" fill="black"/>
<path d="M0.999427 20.9994C0.737079 20.9994 0.525391 20.785 0.525391 20.5193V18.3864C0.525391 18.1206 0.737079 17.9062 0.999427 17.9062C1.26178 17.9062 1.47346 18.1206 1.47346 18.3864V20.5193C1.47346 20.785 1.26178 20.9994 0.999427 20.9994Z" fill="black"/>
<path d="M19.0033 20.9994C18.741 20.9994 18.5293 20.785 18.5293 20.5193V18.3864C18.5293 18.1206 18.741 17.9062 19.0033 17.9062C19.2657 17.9062 19.4774 18.1206 19.4774 18.3864V20.5193C19.4774 20.785 19.2657 20.9994 19.0033 20.9994Z" fill="black"/>
<path d="M9.19624 8.99157C8.93389 8.99157 8.7222 8.77717 8.7222 8.51146V6.34183C8.7222 5.97167 8.48156 5.66931 8.18665 5.66931H4.8702C4.57348 5.66931 4.33284 5.96984 4.33284 6.34183V8.51146C4.33284 8.77717 4.12115 8.99157 3.8588 8.99157C3.59645 8.99157 3.38477 8.77717 3.38477 8.51146V6.34183C3.38477 5.44209 4.05059 4.71094 4.86839 4.71094H8.18484C9.00264 4.71094 9.66846 5.44209 9.66846 6.34183V8.51146C9.66846 8.77717 9.45678 8.99157 9.19443 8.99157H9.19624Z" fill="black"/>
<path d="M16.1415 8.99157C15.8792 8.99157 15.6675 8.77717 15.6675 8.51146V6.34183C15.6675 5.97167 15.4269 5.66931 15.132 5.66931H11.8155C11.5188 5.66931 11.2782 5.96984 11.2782 6.34183V8.51146C11.2782 8.77717 11.0665 8.99157 10.8041 8.99157C10.5418 8.99157 10.3301 8.77717 10.3301 8.51146V6.34183C10.3301 5.44209 10.9959 4.71094 11.8137 4.71094H15.1302C15.948 4.71094 16.6138 5.44209 16.6138 6.34183V8.51146C16.6138 8.77717 16.4021 8.99157 16.1397 8.99157H16.1415Z" fill="black"/>
</g>
<defs>
<clipPath id="clip0_1932_593">
<rect width="20" height="21" fill="white"/>
</clipPath>
</defs>
</svg>
