<svg width="21" height="30" viewBox="0 0 21 30" fill="none" xmlns="http://www.w3.org/2000/svg">
<path d="M19.5 9C19.5 4.035 15.465 0 10.5 0C5.535 0 1.5 4.035 1.5 9C1.5 14.235 6.93 21.285 9.345 24.18C9.945 24.9 11.04 24.9 11.64 24.18C14.07 21.285 19.5 14.235 19.5 9ZM7.5 9C7.5 7.35 8.85 6 10.5 6C12.15 6 13.5 7.35 13.5 9C13.5 10.65 12.165 12 10.5 12C8.85 12 7.5 10.65 7.5 9ZM0 28.5C0 29.325 0.675 30 1.5 30H19.5C20.325 30 21 29.325 21 28.5C21 27.675 20.325 27 19.5 27H1.5C0.675 27 0 27.675 0 28.5Z" fill="black"/>
</svg>
