<svg width="20" height="19" viewBox="0 0 20 19" fill="none" xmlns="http://www.w3.org/2000/svg">
<g clip-path="url(#clip0_1932_608)">
<path d="M18.8321 2.80937H0.688146C0.308177 2.80937 0 2.49694 0 2.11172C0 1.7265 0.308177 1.41406 0.688146 1.41406H18.8321C19.212 1.41406 19.5202 1.7265 19.5202 2.11172C19.5202 2.49694 19.212 2.80937 18.8321 2.80937Z" fill="black"/>
<path d="M6.38767 9.325H0.688146C0.308177 9.325 0 9.01256 0 8.62734C0 8.24212 0.308177 7.92969 0.688146 7.92969H6.38767C6.76764 7.92969 7.07582 8.24212 7.07582 8.62734C7.07582 9.01256 6.76764 9.325 6.38767 9.325Z" fill="black"/>
<path d="M6.38767 15.8387H0.688146C0.308177 15.8387 0 15.5262 0 15.141C0 14.7558 0.308177 14.4434 0.688146 14.4434H6.38767C6.76764 14.4434 7.07582 14.7558 7.07582 15.141C7.07582 15.5262 6.76764 15.8387 6.38767 15.8387Z" fill="black"/>
<path d="M12.85 16.7255C10.0817 16.7255 7.82812 14.4426 7.82812 11.6343C7.82812 8.82588 10.0799 6.54297 12.85 6.54297C15.6201 6.54297 17.8719 8.82588 17.8719 11.6343C17.8719 14.4426 15.6201 16.7255 12.85 16.7255ZM12.85 7.93828C10.8399 7.93828 9.20442 9.59632 9.20442 11.6343C9.20442 13.6722 10.8399 15.3302 12.85 15.3302C14.8602 15.3302 16.4956 13.6722 16.4956 11.6343C16.4956 9.59632 14.8602 7.93828 12.85 7.93828Z" fill="black"/>
<path d="M19.3141 19.0009C19.139 19.0009 18.9622 18.9334 18.8273 18.7967L15.3708 15.2925C15.1029 15.0209 15.1029 14.5788 15.3708 14.3072C15.6388 14.0356 16.0748 14.0356 16.3427 14.3072L19.7991 17.8115C20.0671 18.0831 20.0671 18.5251 19.7991 18.7967C19.6643 18.9334 19.4892 19.0009 19.3124 19.0009H19.3141Z" fill="black"/>
</g>
<defs>
<clipPath id="clip0_1932_608">
<rect width="20" height="19" fill="white"/>
</clipPath>
</defs>
</svg>
