<svg width="21" height="21" viewBox="0 0 21 21" fill="none" xmlns="http://www.w3.org/2000/svg">
<path d="M8.50778 4.81875C8.23445 1.67285 4.95447 0.129255 4.81566 0.0662513C4.6859 0.00521435 4.54047 -0.0142869 4.39922 0.0104069C0.612659 0.639014 0.0430995 2.84415 0.0202026 2.93579C-0.0109495 3.0635 -0.00599473 3.19736 0.0345132 3.32241C4.55092 17.3437 13.9372 19.9426 17.0225 20.7974C17.2601 20.8633 17.4562 20.9163 17.605 20.9649C17.7748 21.0205 17.9593 21.0097 18.1216 20.9349C18.216 20.8919 20.4456 19.8409 20.9909 16.4129C21.015 16.2633 20.991 16.1098 20.9222 15.9747C20.8735 15.8802 19.7072 13.6594 16.473 12.8747C16.3633 12.8466 16.2484 12.8456 16.1382 12.8718C16.028 12.898 15.9259 12.9506 15.8405 13.025C14.8202 13.897 13.4106 14.8264 12.8024 14.9223C8.7253 12.9276 6.44849 9.10016 6.36263 8.37418C6.31254 7.96609 7.24702 6.53275 8.32174 5.36717C8.38929 5.29382 8.44074 5.20712 8.47278 5.11267C8.50482 5.01822 8.51674 4.9181 8.50778 4.81875Z" fill="black"/>
</svg>
