<svg width="20" height="20" viewBox="0 0 20 20" fill="none" xmlns="http://www.w3.org/2000/svg">
<path d="M19.5705 8.64042L11.3266 0.419418C10.5697 -0.364822 10.3805 0.121947 10.3805 0.500546V4.28653L4.2449 8.82972H0.541893C-0.512247 8.82972 0.325659 9.96552 0.163484 9.77622L4.81251 14.4005L0.920302 18.3217C0.704068 18.5381 0.704068 18.8896 0.920302 19.106C1.13654 19.3223 1.48792 19.3223 1.70415 19.106L5.59636 15.2118L10.2184 19.8632C10.0832 19.728 11.1914 20.4581 11.1914 19.4846V15.7527L15.7323 9.61396H19.165C19.7327 9.58692 20.4895 9.58692 19.5705 8.64042ZM1.86633 9.88439H4.27193L10.1373 15.7527V18.1595L1.86633 9.88439ZM10.6508 14.671L5.32607 9.34353L10.7589 5.39529L14.6512 9.34353L10.6508 14.671ZM15.462 8.53225L11.4617 4.52992V2.12311L17.8676 8.53225H15.462Z" fill="black"/>
</svg>
