<svg width="17" height="20" viewBox="0 0 17 20" fill="none" xmlns="http://www.w3.org/2000/svg">
<g clip-path="url(#clip0_1932_588)">
<path d="M8.40137 10.0926C5.58807 10.0926 3.30078 7.82965 3.30078 5.04629C3.30078 2.26294 5.58807 0 8.40137 0C11.2147 0 13.502 2.26294 13.502 5.04629C13.502 7.82965 11.2147 10.0926 8.40137 10.0926ZM8.40137 1.02134C6.15743 1.02134 4.33311 2.82818 4.33311 5.04629C4.33311 7.2644 6.1594 9.07124 8.40137 9.07124C10.6433 9.07124 12.4696 7.2644 12.4696 5.04629C12.4696 2.82818 10.6453 1.02134 8.40137 1.02134Z" fill="black"/>
<path d="M14.1118 19.9997H2.87832C1.29042 19.9997 0 18.723 0 17.152V14.7936C0 13.4974 0.482675 12.2519 1.3574 11.2832C2.26168 10.2814 3.79244 10.0709 4.99815 10.7803C7.08054 12.0063 9.84065 11.981 11.8994 10.718C13.0795 9.99484 14.6241 10.2034 15.5736 11.213C16.4937 12.1915 17.002 13.4623 17.002 14.7936V17.1403C17.002 18.7152 15.7056 19.9978 14.1138 19.9978L14.1118 19.9997ZM3.4792 11.3904C2.96697 11.3904 2.46854 11.5892 2.12771 11.9654C1.42241 12.7451 1.03233 13.7508 1.03233 14.7955V17.154C1.03233 18.1617 1.86174 18.9803 2.87832 18.9803H14.1118C15.1363 18.9803 15.9677 18.1558 15.9677 17.1442V14.7975C15.9677 13.7255 15.5599 12.7002 14.8171 11.9128C14.2103 11.2696 13.1898 11.1292 12.4412 11.5892C10.0613 13.0511 6.87565 13.0784 4.46819 11.6613C4.16085 11.4801 3.81608 11.3924 3.47723 11.3924L3.4792 11.3904Z" fill="black"/>
</g>
<defs>
<clipPath id="clip0_1932_588">
<rect width="17" height="20" fill="white"/>
</clipPath>
</defs>
</svg>
