<svg width="19" height="22" viewBox="0 0 19 22" fill="none" xmlns="http://www.w3.org/2000/svg">
<path d="M7.61587 11.3125C7.0934 11.2994 6.57073 11.329 6.05309 11.4009C5.30203 11.5695 4.64342 12.017 4.21099 12.6524C3.77856 13.2879 3.6047 14.0637 3.72473 14.8224C3.83783 15.589 4.23859 16.284 4.84589 16.7669C5.4532 17.2498 6.22168 17.4844 6.99582 17.4233C7.75852 17.3708 8.47315 17.0326 8.99646 16.4765C9.51978 15.9204 9.81312 15.1875 9.81769 14.4247C9.81769 9.77851 9.81769 5.13861 9.81769 0.492397V0H13.4431C13.6709 3.07433 15.4804 4.6399 18.4415 5.05023V8.59171C16.6685 8.56971 14.9444 8.00808 13.5 6.98194C13.5 7.14608 13.5 7.26602 13.5 7.38596C13.5 9.66488 13.5 11.9375 13.5 14.2101C13.5476 15.6194 13.1423 17.0069 12.3431 18.17C11.544 19.333 10.3931 20.2105 9.05844 20.6744C7.84466 21.1701 6.50649 21.2772 5.22905 20.9809C3.9516 20.6846 2.798 19.9995 1.92784 19.0204C0.994867 18.1199 0.362091 16.9548 0.11535 15.6832C-0.13139 14.4117 0.0198465 13.0951 0.548546 11.9122C1.08471 10.5481 2.05802 9.39911 3.31686 8.64437C4.57569 7.88963 6.04936 7.57148 7.50831 7.73948L7.64118 7.77104L7.61587 11.3125Z" fill="url(#paint0_linear_1838_887)"/>
<defs>
<linearGradient id="paint0_linear_1838_887" x1="9.22927" y1="21.11" x2="9.22927" y2="0" gradientUnits="userSpaceOnUse">
<stop offset="1" stop-color="white"/>
</linearGradient>
</defs>
</svg>
